<svg xmlns="http://www.w3.org/2000/svg" viewBox="-4 0 72 72">
  <defs>
    <linearGradient id="roof" x1="0" y1="0" x2="0" y2="1">
      <stop offset="0%" stop-color="#F5A623"/>
      <stop offset="100%" stop-color="#E8830A"/>
    </linearGradient>
    <linearGradient id="ocean" x1="0" y1="0" x2="0" y2="1">
      <stop offset="0%" stop-color="#1BA8E0"/>
      <stop offset="100%" stop-color="#0D6FA8"/>
    </linearGradient>
    <radialGradient id="sun" cx="50%" cy="50%" r="50%">
      <stop offset="0%" stop-color="#FFD27A"/>
      <stop offset="70%" stop-color="#F5A623"/>
      <stop offset="100%" stop-color="#E8830A"/>
    </radialGradient>
    <linearGradient id="hex-stroke" x1="0" y1="0" x2="1" y2="1">
      <stop offset="0%" stop-color="#F5A623"/>
      <stop offset="100%" stop-color="#0D6FA8"/>
    </linearGradient>
    <clipPath id="hex-clip">
      <polygon points="32,2 60,18 60,54 32,70 4,54 4,18"/>
    </clipPath>
  </defs>
  <polygon points="32,2 60,18 60,54 32,70 4,54 4,18" fill="none" stroke="url(#hex-stroke)" stroke-width="2.5" stroke-linejoin="round"/>
  <g clip-path="url(#hex-clip)">
    <path d="M8 32 L32 12 L56 32 L50 32 L32 18 L14 32 Z" fill="url(#roof)"/>
    <path d="M32 12 L56 32 L50 32 L32 18 Z" fill="#E8830A" opacity="0.85"/>
    <circle cx="42" cy="40" r="5.5" fill="url(#sun)"/>
    <path d="M4 50 C 14 44, 22 56, 32 50 C 42 44, 50 56, 60 50 L 60 70 L 4 70 Z" fill="#1BA8E0" opacity="0.95"/>
    <path d="M4 56 C 14 50, 22 62, 32 56 C 42 50, 50 62, 60 56 L 60 70 L 4 70 Z" fill="url(#ocean)"/>
  </g>
</svg>
